<svg width="1465" height="633" viewBox="0 0 1465 633" fill="none" xmlns="http://www.w3.org/2000/svg">
<g id="popup">
<rect id="Rectangle 1" width="1465" height="633" rx="57" fill="#C4EEF0"/>
<g id="Group 173">
<path id="Vector" d="M1460.92 313.917H1460.33C1460.16 313.917 1452.96 307.089 1438.71 293.433L1438.53 293.264V276.166L1450.2 264.987V223.77L1460.92 213.488V313.908V313.917ZM1439.73 292.793C1441.48 294.473 1455.78 308.176 1459.74 311.962V216.243L1451.39 224.241V265.458L1439.73 276.637V292.784V292.793Z" fill="#048FA1"/>
<path id="Vector_2" d="M1460.7 334.214L1438.58 313.011L1438.53 299.903L1460.7 321.151V334.214ZM1439.77 312.54L1459.5 331.459V321.631L1439.73 302.675L1439.77 312.54Z" fill="#048FA1"/>
<path id="Vector_3" d="M1460.7 352.645L1438.58 331.442L1438.53 318.334L1460.7 339.582V352.645ZM1439.77 330.971L1459.5 349.891V340.062L1439.73 321.106L1439.77 330.971Z" fill="#048FA1"/>
<path id="Vector_4" d="M1460.7 371.076L1438.58 349.873L1438.53 336.774L1460.7 358.022V371.085V371.076ZM1439.77 349.402L1459.5 368.322V358.493L1439.73 339.537L1439.77 349.402Z" fill="#048FA1"/>
<path id="Vector_5" d="M1258.44 622.58H1244.81L1226.21 604.744L1239.88 604.789L1258.45 622.589L1258.44 622.58ZM1245.3 621.433H1255.56L1239.37 605.917L1229.08 605.882L1245.29 621.425L1245.3 621.433Z" fill="#048FA1"/>
<path id="Vector_6" d="M1234.36 622.58H1220.74L1202.13 604.744L1215.8 604.789L1234.37 622.589L1234.36 622.58ZM1221.24 621.433H1231.49L1215.3 605.917L1205.01 605.882L1221.23 621.425L1221.24 621.433Z" fill="#048FA1"/>
<path id="Vector_7" d="M1210.29 622.58H1196.66L1178.05 604.744L1191.73 604.789L1210.3 622.589L1210.29 622.58ZM1197.15 621.433H1207.41L1191.22 605.917L1180.93 605.882L1197.14 621.425L1197.15 621.433Z" fill="#048FA1"/>
<path id="Vector_8" d="M1186.21 622.58H1172.58L1153.98 604.744L1167.64 604.789L1186.21 622.589V622.58ZM1173.08 621.433H1183.33L1167.14 605.917L1156.85 605.882L1173.07 621.425L1173.08 621.433Z" fill="#048FA1"/>
<path id="Vector_9" d="M1419.46 542.581L1415.09 546.776H1403.3L1407.58 542.67L1419.46 542.581Z" fill="#048FA1"/>
<path id="Vector_10" d="M1411.85 549.966L1407.49 554.161H1395.69L1399.97 550.055L1411.85 549.966Z" fill="#048FA1"/>
<path id="Vector_11" d="M1405.16 557.36L1400.79 561.546H1389L1393.28 557.449L1405.16 557.36Z" fill="#048FA1"/>
<path id="Vector_12" d="M1397.14 564.745L1392.76 568.94H1380.97L1385.25 564.834L1397.14 564.745Z" fill="#048FA1"/>
<path id="Vector_13" d="M1389.29 572.13L1384.92 576.324H1373.13L1377.4 572.228L1389.29 572.13Z" fill="#048FA1"/>
<path id="Vector_14" d="M1361.6 622.855H1268.01L1258.35 613.595L1371.3 613.542L1361.59 622.855H1361.6ZM1268.5 621.709H1361.1L1368.42 614.688L1261.21 614.733L1268.49 621.709H1268.5Z" fill="#048FA1"/>
<path id="Vector_15" d="M1373.77 607.588H1254.22L1243.98 597.768H1120.4V596.631H1244.47L1254.71 606.45H1373.28L1456.08 527.065V427.996L1437.62 410.311V391.214H1438.82V409.831L1457.27 427.525V527.545L1373.77 607.588Z" fill="#048FA1"/>
<path id="Vector_16" d="M1438.03 393.64C1440.95 393.64 1443.31 391.376 1443.31 388.583C1443.31 385.791 1440.95 383.527 1438.03 383.527C1435.12 383.527 1432.76 385.791 1432.76 388.583C1432.76 391.376 1435.12 393.64 1438.03 393.64Z" fill="#048FA1"/>
<path id="Vector_17" d="M1115.13 601.963C1118.04 601.963 1120.4 599.699 1120.4 596.906C1120.4 594.113 1118.04 591.849 1115.13 591.849C1112.21 591.849 1109.85 594.113 1109.85 596.906C1109.85 599.699 1112.21 601.963 1115.13 601.963Z" fill="#048FA1"/>
<path id="Vector_18" d="M1437.62 72.7844L1423.99 59.7209H1434.38L1438.25 63.4267V63.6667C1438.25 69.4075 1438.17 72.3342 1438.03 72.4467L1437.62 72.7844ZM1426.87 60.8673L1437.06 70.6339C1437.06 68.5899 1437.06 64.8752 1437.06 63.9066L1433.89 60.8673H1426.86H1426.87Z" fill="#048FA1"/>
<path id="Vector_19" d="M1414.6 62.3514L1409.83 57.7836H1399.43L1404.28 62.4225L1414.6 62.3514Z" fill="#048FA1"/>
<path id="Vector_20" d="M1406.33 54.2645L1401.56 49.6967H1391.17L1396.01 54.3356L1406.33 54.2645Z" fill="#048FA1"/>
<path id="Vector_21" d="M1398.18 46.1776L1393.41 41.6098H1383.02L1387.86 46.2487L1398.18 46.1776Z" fill="#048FA1"/>
<path id="Vector_22" d="M1389.56 38.0907L1384.78 33.5229H1374.39L1379.23 38.1618L1389.56 38.0907Z" fill="#048FA1"/>
<path id="Vector_23" d="M1380.85 30.0038L1376.09 25.436H1365.69L1370.53 30.0748L1380.85 30.0038Z" fill="#048FA1"/>
<path id="Vector_24" d="M1136.78 37.1664H1143.37V30.848H1136.78V37.1664Z" fill="#048FA1"/>
<path id="Vector_25" d="M1126.71 37.1664H1133.3V30.848H1126.71V37.1664Z" fill="#048FA1"/>
<path id="Vector_26" d="M1116.63 37.1664H1123.22V30.848H1116.63V37.1664Z" fill="#048FA1"/>
<path id="Vector_27" d="M1106.56 37.1664H1113.15V30.848H1106.56V37.1664Z" fill="#048FA1"/>
<path id="Vector_28" d="M1432.9 36.4111H1405.02L1372.42 5.17422H1173.07L1160.47 17.2513H1118.94V16.1138H1159.97L1172.58 4.02783H1372.91L1405.51 35.2736H1432.9V36.4111Z" fill="#048FA1"/>
<path id="Vector_29" d="M1113.94 22.0057C1116.85 22.0057 1119.21 19.7418 1119.21 16.9491C1119.21 14.1565 1116.85 11.8926 1113.94 11.8926C1111.02 11.8926 1108.66 14.1565 1108.66 16.9491C1108.66 19.7418 1111.02 22.0057 1113.94 22.0057Z" fill="#048FA1"/>
<path id="Vector_30" d="M1438.17 40.8989C1441.08 40.8989 1443.44 38.635 1443.44 35.8423C1443.44 33.0497 1441.08 30.7858 1438.17 30.7858C1435.26 30.7858 1432.89 33.0497 1432.89 35.8423C1432.89 38.635 1435.26 40.8989 1438.17 40.8989Z" fill="#048FA1"/>
<path id="Vector_31" d="M1436.04 178.519V241.561L1438.32 243.747V253.46L1426.42 264.862V270.132L1423.64 272.789V332.703L1426.56 335.494V344.763L1419.77 351.268V339.644L1421.11 338.355V263.627L1431.87 253.318V230.87L1433.55 229.262V172.929L1431.3 170.77V167.188L1440.82 158.079V145.567L1441.99 144.447V134.823L1440.17 133.099L1436.96 136.182V155.191L1427.07 164.664V246.84L1414.72 258.686V411.902L1441.55 437.62V520.525L1422.63 538.653H1405.93L1360.72 582.003H1158.54L1149.07 572.93L1149.12 572.974L1144.44 567.749H1355.06L1409.33 515.743V97.8361L1355.26 46.222H891.015L895.91 41.5298H932.566V41.512H1149.57L1157.72 33.7006H1186.75L1195.25 25.5603H1362.23L1403.95 65.5595H1419.65L1436.69 81.8933V119.333L1440.94 123.403V129.553L1444.98 133.427V154.649L1447.26 156.835V162.691L1438.45 171.134V176.208L1436.04 178.519Z" fill="#048FA1"/>
<path id="Vector_32" d="M4.07794 213.497L14.8041 223.779V264.996L26.4667 276.175V293.273L26.2905 293.442C12.0446 307.092 4.83814 313.917 4.67127 313.917H4.07794V213.497ZM25.2708 276.646L13.6082 265.467V224.25L5.26459 216.252V311.971C9.22318 308.176 23.5186 294.473 25.2708 292.802V276.655V276.646Z" fill="#048FA1"/>
<path id="Vector_33" d="M4.30054 321.151L26.4668 299.903L26.4204 313.011L4.30054 334.214V321.151ZM25.2616 302.675L5.49646 321.631V331.459L25.2338 312.54L25.2709 302.675H25.2616Z" fill="#048FA1"/>
<path id="Vector_34" d="M4.30054 339.582L26.4668 318.334L26.4204 331.442L4.30054 352.645V339.582ZM25.2616 321.106L5.49646 340.062V349.891L25.2338 330.971L25.2709 321.106H25.2616Z" fill="#048FA1"/>
<path id="Vector_35" d="M4.30054 358.013L26.4668 336.765L26.4204 349.864L4.30054 371.076V358.013ZM25.2616 339.537L5.49646 358.493V368.322L25.2338 349.402L25.2709 339.537H25.2616Z" fill="#048FA1"/>
<path id="Vector_36" d="M225.129 604.789L238.803 604.744L220.197 622.58H206.569L225.138 604.78L225.129 604.789ZM235.91 605.899L225.62 605.935L209.433 621.451H219.687L235.901 605.908L235.91 605.899Z" fill="#048FA1"/>
<path id="Vector_37" d="M249.204 604.789L262.879 604.744L244.272 622.58H230.645L249.214 604.78L249.204 604.789ZM259.986 605.899L249.696 605.935L233.509 621.451H243.763L259.977 605.908L259.986 605.899Z" fill="#048FA1"/>
<path id="Vector_38" d="M273.281 604.789L286.955 604.744L268.349 622.58H254.721L273.29 604.78L273.281 604.789ZM284.062 605.899L273.772 605.935L257.585 621.451H267.839L284.053 605.908L284.062 605.899Z" fill="#048FA1"/>
<path id="Vector_39" d="M297.357 604.789L311.022 604.744L292.415 622.58H278.787L297.357 604.78V604.789ZM308.138 605.899L297.848 605.935L281.661 621.451H291.915L308.129 605.908L308.138 605.899Z" fill="#048FA1"/>
<path id="Vector_40" d="M45.5458 542.581L49.9123 546.776H61.7046L57.4308 542.67L45.5458 542.581Z" fill="#048FA1"/>
<path id="Vector_41" d="M53.1478 549.966L57.5236 554.161H69.3067L65.0329 550.055L53.1478 549.966Z" fill="#048FA1"/>
<path id="Vector_42" d="M59.8413 557.36L64.2171 561.546H76.0001L71.7263 557.449L59.8413 557.36Z" fill="#048FA1"/>
<path id="Vector_43" d="M67.8697 564.745L72.2455 568.94H84.0285L79.7547 564.834L67.8697 564.745Z" fill="#048FA1"/>
<path id="Vector_44" d="M75.7127 572.13L80.0885 576.324H91.8715L87.5977 572.228L75.7127 572.13Z" fill="#048FA1"/>
<path id="Vector_45" d="M93.6886 613.542L206.643 613.595L196.983 622.855H103.404L93.6886 613.542ZM203.769 614.733L96.5625 614.688L103.886 621.709H196.482L203.76 614.733H203.769Z" fill="#048FA1"/>
<path id="Vector_46" d="M91.2318 607.588H210.787L221.022 597.768H344.6V596.631H220.53L210.286 606.45H91.7324L8.9173 527.065V427.996L27.3753 410.311V391.214H26.1886V409.831L7.73065 427.525V527.545L91.2318 607.588Z" fill="#048FA1"/>
<path id="Vector_47" d="M26.9674 393.64C29.8807 393.64 32.2424 391.376 32.2424 388.583C32.2424 385.791 29.8807 383.527 26.9674 383.527C24.0541 383.527 21.6924 385.791 21.6924 388.583C21.6924 391.376 24.0541 393.64 26.9674 393.64Z" fill="#048FA1"/>
<path id="Vector_48" d="M349.875 601.963C352.788 601.963 355.15 599.699 355.15 596.906C355.15 594.113 352.788 591.849 349.875 591.849C346.962 591.849 344.6 594.113 344.6 596.906C344.6 599.699 346.962 601.963 349.875 601.963Z" fill="#048FA1"/>
<path id="Vector_49" d="M26.9673 72.4556C26.8252 72.3371 26.7541 69.4104 26.7541 63.6755V63.4356L30.62 59.7298H41.0124L27.3845 72.7933L26.9673 72.4556ZM31.1113 60.8673L27.9407 63.9066C27.9407 64.8752 27.9407 68.5899 27.9407 70.6338L38.1292 60.8673H31.102H31.1113Z" fill="#048FA1"/>
<path id="Vector_50" d="M50.413 62.3514L55.1781 57.7836H65.5706L60.7313 62.4225L50.413 62.3514Z" fill="#048FA1"/>
<path id="Vector_51" d="M58.6732 54.2645L63.4383 49.6967H73.84L68.9914 54.3356L58.6732 54.2645Z" fill="#048FA1"/>
<path id="Vector_52" d="M66.8221 46.1776L71.5965 41.6098H81.9889L77.1404 46.2487L66.8221 46.1776Z" fill="#048FA1"/>
<path id="Vector_53" d="M75.4531 38.0907L80.2183 33.5229H90.6107L85.7714 38.1618L75.4531 38.0907Z" fill="#048FA1"/>
<path id="Vector_54" d="M84.149 30.0038L88.9235 25.436H99.3159L94.4673 30.0748L84.149 30.0038Z" fill="#048FA1"/>
<path id="Vector_55" d="M328.219 30.8568H321.627V37.1753H328.219V30.8568Z" fill="#048FA1"/>
<path id="Vector_56" d="M338.296 30.8568H331.705V37.1753H338.296V30.8568Z" fill="#048FA1"/>
<path id="Vector_57" d="M348.373 30.8568H341.782V37.1753H348.373V30.8568Z" fill="#048FA1"/>
<path id="Vector_58" d="M358.441 30.8568H351.85V37.1753H358.441V30.8568Z" fill="#048FA1"/>
<path id="Vector_59" d="M32.1055 36.4111H59.9917L92.5875 5.17422H291.926L304.534 17.2513H346.058V16.1138H305.026L292.427 4.02783H92.0869L59.5004 35.2736H32.1055V36.4111Z" fill="#048FA1"/>
<path id="Vector_60" d="M351.064 22.0057C353.977 22.0057 356.339 19.7418 356.339 16.9491C356.339 14.1565 353.977 11.8926 351.064 11.8926C348.15 11.8926 345.789 14.1565 345.789 16.9491C345.789 19.7418 348.15 22.0057 351.064 22.0057Z" fill="#048FA1"/>
<path id="Vector_61" d="M26.8304 40.8989C29.7437 40.8989 32.1054 38.635 32.1054 35.8423C32.1054 33.0497 29.7437 30.7858 26.8304 30.7858C23.9171 30.7858 21.5554 33.0497 21.5554 35.8423C21.5554 38.635 23.9171 40.8989 26.8304 40.8989Z" fill="#048FA1"/>
<path id="Vector_62" d="M732.505 45.3689H602.418L581.624 25.436H599.85L609.798 34.9626H732.505H855.212L865.15 25.436H883.376L862.591 45.3689H732.505Z" fill="#048FA1"/>
<path id="Vector_63" d="M322 567.749L315.889 572.974L315.935 572.93L306.47 582.003H104.294L59.0812 538.653H42.3754L23.4631 520.525V437.62L50.2925 411.902V258.686L37.944 246.84V164.664L28.0521 155.191V136.182L24.8352 133.099L23.0181 134.823V144.447L24.1862 145.567V158.079L33.7073 167.188V170.77L31.4545 172.929V229.262L33.1417 230.87V253.318L43.8958 263.627V338.355L45.24 339.644V351.268L38.4539 344.763V335.494L41.3741 332.703V272.789L38.5929 270.132V264.862L26.6893 253.46V243.747L28.9699 241.561V178.519L26.5595 176.208V171.134L17.7524 162.691V156.835L20.033 154.649V133.427L24.0657 129.553V123.403L28.321 119.333V81.8933L45.3605 65.5595H61.0558L102.783 25.5603H269.758L278.259 33.7006H307.286L315.434 41.512H532.443V41.5298H569.099L573.994 46.222H109.746L55.6788 97.8361V515.743L109.949 567.749H322Z" fill="#048FA1"/>
<path id="Vector_64" d="M864.779 53.1981H600.221L561.961 16.5226H522.764V13.8566H563.11L601.371 50.5321H863.629L901.899 13.8566H942.236V16.5226H903.048L864.779 53.1981Z" fill="#048FA1"/>
<path id="Vector_65" d="M363.688 30.8568L370.41 37.2997H557.956V30.8568H363.688Z" fill="#048FA1"/>
<path id="Vector_66" d="M1101.32 30.8568L1094.59 37.2997H907.044V30.8568H1101.32Z" fill="#048FA1"/>
<g id="Group 166">
<path id="Vector_67" d="M732.256 598.262H460.348L456.657 595.598H445.872L457.875 604.255H474.941L478.632 601.591H732.256" fill="#048FA1"/>
<path id="Vector_68" d="M732.256 598.262H1004.17L1007.87 595.598H1018.64L1006.65 604.255H989.581L985.89 601.591H732.256" fill="#048FA1"/>
<path id="Vector_69" d="M733.61 600.262H730.903V613.238H733.61V600.262Z" fill="#048FA1"/>
<path id="Vector_70" d="M488.577 600.262H485.87V613.238H488.577V600.262Z" fill="#048FA1"/>
<path id="Vector_71" d="M497.205 600.262H495.4V607.382H497.205V600.262Z" fill="#048FA1"/>
<path id="Vector_72" d="M506.284 600.262H504.479V607.382H506.284V600.262Z" fill="#048FA1"/>
<path id="Vector_73" d="M515.354 600.262H513.549V607.382H515.354V600.262Z" fill="#048FA1"/>
<path id="Vector_74" d="M524.433 600.262H522.628V607.382H524.433V600.262Z" fill="#048FA1"/>
<path id="Vector_75" d="M533.954 600.262H531.247V613.238H533.954V600.262Z" fill="#048FA1"/>
<path id="Vector_76" d="M542.582 600.262H540.777V607.382H542.582V600.262Z" fill="#048FA1"/>
<path id="Vector_77" d="M551.661 600.262H549.856V607.382H551.661V600.262Z" fill="#048FA1"/>
<path id="Vector_78" d="M560.731 600.262H558.926V607.382H560.731V600.262Z" fill="#048FA1"/>
<path id="Vector_79" d="M569.81 600.262H568.005V607.382H569.81V600.262Z" fill="#048FA1"/>
<path id="Vector_80" d="M579.331 600.262H576.624V613.238H579.331V600.262Z" fill="#048FA1"/>
<path id="Vector_81" d="M587.959 600.262H586.154V607.382H587.959V600.262Z" fill="#048FA1"/>
<path id="Vector_82" d="M597.038 600.262H595.233V607.382H597.038V600.262Z" fill="#048FA1"/>
<path id="Vector_83" d="M606.108 600.262H604.303V607.382H606.108V600.262Z" fill="#048FA1"/>
<path id="Vector_84" d="M615.187 600.262H613.382V607.382H615.187V600.262Z" fill="#048FA1"/>
<path id="Vector_85" d="M624.708 600.262H622V613.238H624.708V600.262Z" fill="#048FA1"/>
<path id="Vector_86" d="M633.336 600.262H631.531V607.382H633.336V600.262Z" fill="#048FA1"/>
<path id="Vector_87" d="M642.415 600.262H640.61V607.382H642.415V600.262Z" fill="#048FA1"/>
<path id="Vector_88" d="M651.484 600.262H649.679V607.382H651.484V600.262Z" fill="#048FA1"/>
<path id="Vector_89" d="M660.563 600.262H658.758V607.382H660.563V600.262Z" fill="#048FA1"/>
<path id="Vector_90" d="M670.085 600.262H667.377V613.238H670.085V600.262Z" fill="#048FA1"/>
<path id="Vector_91" d="M678.712 600.262H676.907V607.382H678.712V600.262Z" fill="#048FA1"/>
<path id="Vector_92" d="M687.791 600.262H685.986V607.382H687.791V600.262Z" fill="#048FA1"/>
<path id="Vector_93" d="M696.861 600.262H695.056V607.382H696.861V600.262Z" fill="#048FA1"/>
<path id="Vector_94" d="M705.94 600.262H704.135V607.382H705.94V600.262Z" fill="#048FA1"/>
<path id="Vector_95" d="M715.461 600.262H712.754V613.238H715.461V600.262Z" fill="#048FA1"/>
<path id="Vector_96" d="M724.089 600.262H722.284V607.382H724.089V600.262Z" fill="#048FA1"/>
<path id="Vector_97" d="M978.652 600.262H975.944V613.238H978.652V600.262Z" fill="#048FA1"/>
<path id="Vector_98" d="M969.122 600.262H967.317V607.382H969.122V600.262Z" fill="#048FA1"/>
<path id="Vector_99" d="M960.043 600.262H958.238V607.382H960.043V600.262Z" fill="#048FA1"/>
<path id="Vector_100" d="M950.973 600.262H949.168V607.382H950.973V600.262Z" fill="#048FA1"/>
<path id="Vector_101" d="M941.894 600.262H940.089V607.382H941.894V600.262Z" fill="#048FA1"/>
<path id="Vector_102" d="M933.266 600.262H930.559V613.238H933.266V600.262Z" fill="#048FA1"/>
<path id="Vector_103" d="M923.745 600.262H921.94V607.382H923.745V600.262Z" fill="#048FA1"/>
<path id="Vector_104" d="M914.666 600.262H912.861V607.382H914.666V600.262Z" fill="#048FA1"/>
<path id="Vector_105" d="M905.596 600.262H903.791V607.382H905.596V600.262Z" fill="#048FA1"/>
<path id="Vector_106" d="M896.517 600.262H894.712V607.382H896.517V600.262Z" fill="#048FA1"/>
<path id="Vector_107" d="M887.898 600.262H885.191V613.238H887.898V600.262Z" fill="#048FA1"/>
<path id="Vector_108" d="M878.368 600.262H876.563V607.382H878.368V600.262Z" fill="#048FA1"/>
<path id="Vector_109" d="M869.289 600.262H867.484V607.382H869.289V600.262Z" fill="#048FA1"/>
<path id="Vector_110" d="M860.219 600.262H858.414V607.382H860.219V600.262Z" fill="#048FA1"/>
<path id="Vector_111" d="M851.14 600.262H849.336V607.382H851.14V600.262Z" fill="#048FA1"/>
<path id="Vector_112" d="M842.522 600.262H839.814V613.238H842.522V600.262Z" fill="#048FA1"/>
<path id="Vector_113" d="M832.992 600.262H831.187V607.382H832.992V600.262Z" fill="#048FA1"/>
<path id="Vector_114" d="M823.913 600.262H822.108V607.382H823.913V600.262Z" fill="#048FA1"/>
<path id="Vector_115" d="M814.843 600.262H813.038V607.382H814.843V600.262Z" fill="#048FA1"/>
<path id="Vector_116" d="M805.764 600.262H803.959V607.382H805.764V600.262Z" fill="#048FA1"/>
<path id="Vector_117" d="M797.145 600.262H794.438V613.238H797.145V600.262Z" fill="#048FA1"/>
<path id="Vector_118" d="M787.615 600.262H785.81V607.382H787.615V600.262Z" fill="#048FA1"/>
<path id="Vector_119" d="M778.536 600.262H776.731V607.382H778.536V600.262Z" fill="#048FA1"/>
<path id="Vector_120" d="M769.466 600.262H767.661V607.382H769.466V600.262Z" fill="#048FA1"/>
<path id="Vector_121" d="M760.387 600.262H758.582V607.382H760.387V600.262Z" fill="#048FA1"/>
<path id="Vector_122" d="M751.768 600.262H749.061V613.238H751.768V600.262Z" fill="#048FA1"/>
<path id="Vector_123" d="M742.238 600.262H740.433V607.382H742.238V600.262Z" fill="#048FA1"/>
</g>
<path id="Vector 55" d="M361.471 605.752L372.954 597.459H404.531L429.649 579.32H465.532L474.143 585.539H437.543L409.554 605.752H361.471Z" fill="#048FA1"/>
<path id="Vector 56" d="M1102.81 605.752L1091.33 597.459H1059.75L1034.63 579.32H998.751L990.139 585.539H1026.74L1054.73 605.752H1102.81Z" fill="#048FA1"/>
<path id="Vector 57" d="M293.294 581.911L312.671 567.918H416.731L397.354 581.911H293.294Z" fill="#048FA1"/>
<path id="Vector 58" d="M1171.71 581.911L1152.33 567.918H1048.27L1067.65 581.911H1171.71Z" fill="#048FA1"/>
<g id="Group 172">
<path id="Vector_124" d="M535.098 569.99H523.662L550.979 589.685H562.415L535.098 569.99Z" fill="#048FA1"/>
<path id="Vector_125" d="M512.133 569.99H500.697L528.014 589.685H539.45L512.133 569.99Z" fill="#048FA1"/>
<path id="Vector_126" d="M489.168 569.99H477.732L505.049 589.685H516.485L489.168 569.99Z" fill="#048FA1"/>
</g>
<g id="Group 171">
<path id="Vector_127" d="M929.902 569.99H941.338L914.021 589.685H902.585L929.902 569.99Z" fill="#048FA1"/>
<path id="Vector_128" d="M952.867 569.99H964.303L936.986 589.685H925.55L952.867 569.99Z" fill="#048FA1"/>
<path id="Vector_129" d="M975.832 569.99H987.268L959.951 589.685H948.515L975.832 569.99Z" fill="#048FA1"/>
</g>
<path id="Vector 59" d="M959.28 552.887H1328.16L1387 497.95V116.495L1328.16 66.2215H131.821L79.432 116.495V497.95L131.821 552.887H500.697" stroke="#048FA1" stroke-width="2"/>
</g>
</g>
</svg>
